<svg id="Layer_2" data-name="Layer 2" xmlns="http://www.w3.org/2000/svg" viewBox="0 0 1600 1400"><defs><style>.cls-1{fill:#87bfc1;}.cls-2{fill:#262424;}.cls-3{fill:#fff;}.cls-4{fill:#de9244;}.cls-5{fill:#88c0c2;}</style></defs><title>Branding Design</title><rect class="cls-1" x="1090.58" y="979.13" width="160" height="105" rx="11" ry="11" transform="translate(1072.33 -525.56) rotate(45)"/><path class="cls-2" d="M1247.53,1055.65H1230a14,14,0,0,1-9.95-4.12l-69.4-69.4a14,14,0,0,1-4.12-9.95v-17.5a2,2,0,0,1,4,0v17.5a10,10,0,0,0,3,7.15l69.4,69.4a10,10,0,0,0,7.15,3h17.5A2,2,0,1,1,1247.53,1055.65Z"/><circle class="cls-3" cx="1185.07" cy="1081.01" r="13.17" transform="translate(-417.29 1154.59) rotate(-45)"/><rect class="cls-4" x="913.34" y="707.8" width="95" height="127" rx="10.83" ry="10.83" transform="translate(826.81 -453.51) rotate(45)"/><rect class="cls-1" x="934.11" y="710.11" width="24" height="17.5" rx="4.75" ry="4.75" transform="translate(785.42 -458.45) rotate(45)"/><rect class="cls-1" x="896.4" y="747.82" width="24" height="17.5" rx="4.75" ry="4.75" transform="translate(801.04 -420.74) rotate(45)"/><circle class="cls-3" cx="960.84" cy="771.3" r="22.17" transform="translate(-263.97 905.33) rotate(-45)"/><rect class="cls-3" x="902.59" y="-32.85" width="443.7" height="647.7" rx="26.49" ry="26.49" transform="translate(833.44 1415.44) rotate(-90)"/><path class="cls-2" d="M1421.79,515.35H827.09a29,29,0,0,1-29-29V95.64a29,29,0,0,1,29-29h594.71a29,29,0,0,1,29,29V486.36A29,29,0,0,1,1421.79,515.35ZM827.09,71.65a24,24,0,0,0-24,24V486.36a24,24,0,0,0,24,24h594.71a24,24,0,0,0,24-24V95.64a24,24,0,0,0-24-24H827.09Z"/><path class="cls-4" d="M1282.84,406.64c17.66,8.18,17.66,33.91,0,42.09a24.66,24.66,0,0,1-10.39,2.28h-296A24.66,24.66,0,0,1,966,448.72c-17.66-8.18-17.66-33.91,0-42.09a24.66,24.66,0,0,1,10.39-2.28h296A24.66,24.66,0,0,1,1282.84,406.64Z"/><circle class="cls-1" cx="1124.44" cy="241.35" r="113.05"/><path class="cls-4" d="M864.26,414.25l2.3,7.68a21.09,21.09,0,0,0,14.16,14.16l7.68,2.3-7.68,2.3a21.09,21.09,0,0,0-14.16,14.16l-2.3,7.68-2.3-7.68a21.09,21.09,0,0,0-14.16-14.16l-7.68-2.3,7.68-2.3A21.09,21.09,0,0,0,862,421.92Z"/><path class="cls-4" d="M737.82,670.6l2.3,7.68a21.09,21.09,0,0,0,14.16,14.16l7.68,2.3-7.68,2.3a21.09,21.09,0,0,0-14.16,14.16l-2.3,7.68-2.3-7.68A21.09,21.09,0,0,0,721.36,697l-7.68-2.3,7.68-2.3a21.09,21.09,0,0,0,14.16-14.16Z"/><path class="cls-4" d="M1366.73,997.67l2.3,7.68a21.09,21.09,0,0,0,14.16,14.16l7.68,2.3-7.68,2.3a21.09,21.09,0,0,0-14.16,14.16l-2.3,7.68-2.3-7.68a21.09,21.09,0,0,0-14.16-14.16l-7.68-2.3,7.68-2.3a21.09,21.09,0,0,0,14.16-14.16Z"/><path class="cls-4" d="M1390.86,578.22l2.59,8.67a23.81,23.81,0,0,0,16,16l8.67,2.59-8.67,2.59a23.81,23.81,0,0,0-16,16l-2.59,8.67-2.59-8.67a23.81,23.81,0,0,0-16-16l-8.67-2.59,8.67-2.59a23.81,23.81,0,0,0,16-16Z"/><path class="cls-4" d="M1303.54,117.86l2,6.71A18.44,18.44,0,0,0,1317.93,137l6.71,2-6.71,2a18.44,18.44,0,0,0-12.38,12.38l-2,6.71-2-6.71A18.44,18.44,0,0,0,1289.15,141l-6.71-2,6.71-2a18.44,18.44,0,0,0,12.38-12.38Z"/><circle class="cls-1" cx="1273.7" cy="761.59" r="10.59"/><circle class="cls-1" cx="862" cy="1113.42" r="21.87"/><circle class="cls-1" cx="688.57" cy="102.49" r="21.87"/><polygon class="cls-3" points="678.5 1171.04 705.3 1265.94 737.39 1255.81 725.02 1163.51 678.5 1171.04"/><path class="cls-2" d="M705.3,1268.44a2.5,2.5,0,0,1-2.41-1.82l-26.81-94.9a2.5,2.5,0,0,1,2-3.15l46.52-7.53a2.5,2.5,0,0,1,2.88,2.14l12.37,92.3a2.5,2.5,0,0,1-1.73,2.72l-32.09,10.13A2.48,2.48,0,0,1,705.3,1268.44Zm-23.64-95.38L707,1262.78l27.63-8.72-11.75-87.67Z"/><path class="cls-1" d="M837.21,1338.9v13.77H668.08s0-6.5.55-16.72c1.33-24.46,5.82-70.33,21.09-99.8h62.44S768.72,1285,822,1313.56a28.84,28.84,0,0,1,15.05,22.38A29.29,29.29,0,0,1,837.21,1338.9Z"/><path class="cls-3" d="M837.21,1338.9v13.77H668.08s0-6.5.55-16.72H837.06A29.29,29.29,0,0,1,837.21,1338.9Z"/><path class="cls-2" d="M837.21,1355.17H668.08a2.5,2.5,0,0,1-2.5-2.5c0-.07,0-6.68.55-16.86a2.5,2.5,0,0,1,2.5-2.37H837.06a2.5,2.5,0,0,1,2.49,2.25,32,32,0,0,1,.17,3.2v13.77A2.5,2.5,0,0,1,837.21,1355.17Zm-166.6-5h164.1V1338.9c0-.15,0-0.3,0-0.45H671C670.76,1343.67,670.65,1347.74,670.61,1350.17Z"/><polygon class="cls-1" points="718.75 1116.22 608.75 570.16 469.26 570.16 469.26 732.54 654.29 1124.77 718.75 1116.22"/><path class="cls-2" d="M613.09,634.13h-9.18a33.09,33.09,0,0,1-32.58-27.21L569,594.36a2,2,0,0,1,3.9-.71l2.27,12.56a29.14,29.14,0,0,0,28.69,24h9.18A2,2,0,1,1,613.09,634.13Z"/><ellipse class="cls-3" cx="627.81" cy="852.38" rx="34.45" ry="51.63" transform="translate(-172.45 159.36) rotate(-12.73)"/><path class="cls-2" d="M654.62,1093.54a2,2,0,0,1-1.83-1.22L490,700.65a2,2,0,0,1,3.66-1.52L656.45,1090.8A2,2,0,0,1,654.62,1093.54Z"/><path class="cls-4" d="M732.8,1175l-66.73,11.64a10.69,10.69,0,0,1-11.87-6.83l-18-48.92a10.69,10.69,0,0,1,8.19-14.23l76-13.25a10.69,10.69,0,0,1,12.37,8.7l8.82,50.53A10.69,10.69,0,0,1,732.8,1175Z"/><polygon class="cls-3" points="279.19 1171.04 252.38 1265.94 220.29 1255.81 232.66 1163.51 279.19 1171.04"/><path class="cls-2" d="M252.38,1268.44a2.48,2.48,0,0,1-.75-0.12l-32.09-10.13a2.5,2.5,0,0,1-1.73-2.72l12.37-92.3a2.5,2.5,0,0,1,2.88-2.14l46.52,7.53a2.5,2.5,0,0,1,2,3.15l-26.81,94.9A2.5,2.5,0,0,1,252.38,1268.44ZM223,1254.06l27.63,8.72L276,1173.05l-41.22-6.67Z"/><path class="cls-1" d="M122.47,1338.9v13.77H291.6s0-6.5-.55-16.72c-1.33-24.46-5.82-70.33-21.09-99.8H207.53S191,1285,137.68,1313.56a28.84,28.84,0,0,0-15.05,22.38A29.29,29.29,0,0,0,122.47,1338.9Z"/><path class="cls-3" d="M122.47,1338.9v13.77H291.6s0-6.5-.55-16.72H122.63A29.29,29.29,0,0,0,122.47,1338.9Z"/><path class="cls-2" d="M291.6,1355.17H122.47a2.5,2.5,0,0,1-2.5-2.5V1338.9a31.84,31.84,0,0,1,.17-3.2,2.5,2.5,0,0,1,2.49-2.25H291.05a2.5,2.5,0,0,1,2.5,2.37c0.55,10.17.55,16.79,0.55,16.86A2.5,2.5,0,0,1,291.6,1355.17Zm-166.63-5h164.1c0-2.42-.14-6.49-0.4-11.72H125c0,0.15,0,.3,0,0.45v11.27Z"/><polygon class="cls-1" points="241.44 1116.22 344.43 570.16 490.93 570.16 474.74 741.99 305.89 1124.77 241.44 1116.22"/><path class="cls-2" d="M349.28,634.13h-9.18a2,2,0,0,1,0-4h9.18a29.14,29.14,0,0,0,28.69-24l2.27-12.56a2,2,0,0,1,3.9.71l-2.27,12.56A33.09,33.09,0,0,1,349.28,634.13Z"/><ellipse class="cls-3" cx="332.38" cy="852.38" rx="51.63" ry="34.45" transform="translate(-572.3 988.68) rotate(-77.27)"/><path class="cls-2" d="M305.56,1093.54a2,2,0,0,1-1.83-2.74L466.37,699.5V573a2,2,0,1,1,4,0V699.89a2,2,0,0,1-.15.76L307.39,1092.32A2,2,0,0,1,305.56,1093.54Z"/><path class="cls-2" d="M468.35,682.8a2,2,0,0,1-1.31-.5l-10.9-9.62a40.27,40.27,0,0,1-13.63-30.19V578.22a2,2,0,0,1,4,0V642.5a36.31,36.31,0,0,0,12.29,27.22l10.9,9.62A2,2,0,0,1,468.35,682.8Z"/><path class="cls-4" d="M227.17,1174.65l66.64,12.15a10.69,10.69,0,0,0,11.92-6.74l18.42-48.78a10.69,10.69,0,0,0-8.08-14.3l-75.86-13.84a10.69,10.69,0,0,0-12.44,8.6l-9.2,50.46A10.69,10.69,0,0,0,227.17,1174.65Z"/><path class="cls-2" d="M551.23,148.9c-17.86,4.09-9.57,41.21-5.32,53.24s-9.06,42.34,10.65,56.34-27,50.17,20,102.54c36.23,40.36,112,26.4,107.94-11.69s-59.61-64.28-62.88-99.16c-2.08-22.2,11.87-51.58-21.67-68.41C574.91,169.21,565.33,145.67,551.23,148.9Z"/><path class="cls-3" d="M274.5,394l-47.06,38.21a31.16,31.16,0,0,0-7.66,39.23c17.6,32,54.44,88.4,107.19,115.91L335,558l-40-88,37.38-21.17Z"/><path class="cls-2" d="M327,589.21a1.87,1.87,0,0,1-.86-0.21c-53.36-27.83-90.55-85-108-116.67a33,33,0,0,1,8.12-41.57l47.06-38.21a1.86,1.86,0,0,1,2.46.09l57.88,54.83a1.87,1.87,0,0,1-.36,3L297.4,470.78l39.29,86.45a1.87,1.87,0,0,1,.1,1.26l-8,29.35A1.87,1.87,0,0,1,327,589.21ZM274.41,396.48l-45.78,37.18a29.28,29.28,0,0,0-7.2,36.88c17,30.85,53,86.31,104.37,114.07L333,558.16,293.3,470.77a1.87,1.87,0,0,1,.78-2.4l35.18-19.93Z"/><path class="cls-4" d="M387,291L267,389.5s3.5,60,63,69l54.5-31Z"/><path class="cls-2" d="M332.33,450.79a2,2,0,0,1-1-.26c-37.25-21.11-46.89-58-47.28-59.55a2,2,0,0,1,3.84-1c0.09,0.37,9.66,36.82,45.39,57.07A2,2,0,0,1,332.33,450.79Z"/><path class="cls-4" d="M332.38,578.22s140.24,23.7,288.43-5.26L582,440.19,590,278,387,291s-34,63-34,83,22,66.19,22,66.19Z"/><path class="cls-2" d="M356.2,563.48c0.07,0,47.12,7.06,112,7.06,40.33,0,87.55-2.72,134.67-11.57a2,2,0,1,0-.74-3.93c-46.79,8.79-93.79,11.5-133.93,11.5-32.29,0-60.16-1.76-79.95-3.51-9.89-.88-17.76-1.75-23.16-2.41-2.7-.33-4.78-0.6-6.18-0.79l-1.59-.22-0.53-.08a2,2,0,1,0-.59,4h0Z"/><path class="cls-2" d="M369.69,430.36a2,2,0,0,1-1.82-1.19C360.18,411.38,351,387.38,351,374c0-16.36,21.5-59.58,30.75-77.4a2,2,0,1,1,3.51,1.82C378.17,312.13,355,358.08,355,374c0,13.37,10.35,39.32,16.53,53.6A2,2,0,0,1,369.69,430.36Z"/><path class="cls-5" d="M476.22,269.83c-21.55-1.6-35.36,14.75-36.79,32.35s18,25.55,18,25.55,7.45-18.63,14.23-20.17,14.18,22.55,14.18,22.55,23.35-5.39,27.51-28.28S495.32,271.25,476.22,269.83Z"/><path class="cls-3" d="M463.09,235.78l-5.2,50.15s7.31,14.29,19.24,14.86,23.47-12.29,23.47-12.29V232.78Z"/><path class="cls-2" d="M477.92,302.68l-0.87,0c-12.86-.62-20.49-15.25-20.81-15.87a1.87,1.87,0,0,1-.19-1l5.2-50.15a1.87,1.87,0,0,1,1.71-1.67l37.52-3a1.87,1.87,0,0,1,2,1.86V288.5a1.87,1.87,0,0,1-.48,1.25C501.52,290.29,490.25,302.68,477.92,302.68Zm-18.1-17.13c1.34,2.36,7.87,12.93,17.42,13.38s19.29-8.87,21.52-11.17v-53l-34,2.72Z"/><path class="cls-3" d="M322.87,557.62L312.93,601a7.77,7.77,0,0,0,5.33,9.27l29.11,8.06a7.38,7.38,0,0,0,8.83-4.59l12.76-33a7.88,7.88,0,0,0-3.3-9.65l-31.94-18.4A7.39,7.39,0,0,0,322.87,557.62Z"/><path class="cls-2" d="M349.29,620.42a9,9,0,0,1-2.42-.33L317.76,612a9.58,9.58,0,0,1-6.65-11.48L321,557.2h0a9.44,9.44,0,0,1,5.44-6.64,9,9,0,0,1,8.17.46l31.94,18.4a9.77,9.77,0,0,1,4.11,11.94l-12.76,33A9.33,9.33,0,0,1,349.29,620.42ZM324.68,558l-9.93,43.34a5.94,5.94,0,0,0,4,7.05l29.11,8.06a5.54,5.54,0,0,0,6.6-3.47l12.76-33a6,6,0,0,0-2.49-7.36l-31.94-18.4A5.32,5.32,0,0,0,328,554a5.75,5.75,0,0,0-3.29,4.05h0Z"/><path class="cls-3" d="M326.43,535.83l-2.79,8.5a8.28,8.28,0,0,0,3.3,9.48l35.52,23.51a8.28,8.28,0,0,0,12.28-3.9h0a8.27,8.27,0,0,0-.31-6.71c-3.93-7.87-15.43-27.16-37.08-36A8.25,8.25,0,0,0,326.43,535.83Z"/><path class="cls-2" d="M367,580.57a10.1,10.1,0,0,1-5.58-1.69l-35.52-23.5a10.16,10.16,0,0,1-4-11.62l2.79-8.5h0a10.22,10.22,0,0,1,5.4-6.07,9.91,9.91,0,0,1,8-.19c22.22,9.07,34,28.82,38,36.89A10.15,10.15,0,0,1,367,580.57Zm-38.8-44.15-2.79,8.5a6.43,6.43,0,0,0,2.55,7.35l35.52,23.5a6.41,6.41,0,0,0,9.27-8.22c-3.85-7.69-15.07-26.51-36.12-35.11a6.21,6.21,0,0,0-5,.12,6.48,6.48,0,0,0-3.43,3.85h0Z"/><path class="cls-3" d="M897.33,156c-6,1.23-17.53,3.44-29.66,5l28.89,4a5.42,5.42,0,0,1,4.66,5.88c-0.78,8.12-2.64,24.21-6.07,36.65a5.42,5.42,0,0,1-5,4A495.12,495.12,0,0,1,826.33,209S750.5,311,733,327.5c-6.43,6.06-49.65,18.52-74.5,27V274L707,260.62l99.5-81,10.38-60.33a5.55,5.55,0,0,1,5.47-4.61h0a5.55,5.55,0,0,1,5.52,5l3.13,29s33.84-.53,64.76-3.36a5.42,5.42,0,0,1,5.91,5.4h0A5.43,5.43,0,0,1,897.33,156Z"/><path class="cls-2" d="M658.5,357a2.5,2.5,0,0,1-2.5-2.5V274a2.5,2.5,0,0,1,1.83-2.41l48-13.24,98.37-80.09,10.22-59.41a8.05,8.05,0,0,1,15.94.5l2.89,26.7c8.1-.18,36.39-0.93,62.29-3.3a7.92,7.92,0,0,1,2.3,15.65h0c-3,.61-7.53,1.5-12.88,2.44l12,1.64a7.9,7.9,0,0,1,6.81,8.6c-0.81,8.46-2.69,24.53-6.15,37.08a7.9,7.9,0,0,1-7.38,5.83,497,497,0,0,1-62.69-2.36c-8.79,11.8-76.11,102-92.78,117.69-4.8,4.52-24.17,11-53.16,20.27-8.11,2.6-15.77,5.06-22.25,7.27A2.5,2.5,0,0,1,658.5,357Zm2.5-81.1V351c5.75-1.92,12.23-4,19-6.19,20.91-6.71,46.92-15.06,51.26-19.15,17.14-16.16,92.28-117.15,93-118.17a2.49,2.49,0,0,1,2.26-1A493.26,493.26,0,0,0,890,209a2.92,2.92,0,0,0,2.72-2.16c3.36-12.18,5.2-27.92,6-36.22a2.91,2.91,0,0,0-2.51-3.17l-28.89-4a2.5,2.5,0,0,1,0-5c12.14-1.6,23.68-3.83,29.48-5h0a2.94,2.94,0,0,0,2.34-2.87,2.89,2.89,0,0,0-1-2.16,2.86,2.86,0,0,0-2.23-.75c-30.66,2.8-64.61,3.36-64.95,3.37h0a2.5,2.5,0,0,1-2.48-2.23l-3.13-29a3.05,3.05,0,0,0-6-.19L809,180a2.5,2.5,0,0,1-.89,1.51l-99.5,81a2.51,2.51,0,0,1-.91.47Z"/><path class="cls-4" d="M680.5,356.5l-95.49,23h0l0,0-0.12-.13c-3-3.09-51.09-54.8,5.15-101.35l69.53-10.33,14.06-2.09,6.47,85.08Z"/><path class="cls-2" d="M579.06,374.36a2,2,0,0,1-1.59-.8c-11.33-15.23-33.48-54.69,5.55-92a2,2,0,0,1,2.74,2.86c-36.75,35.13-15.82,72.39-5.11,86.78A2,2,0,0,1,579.06,374.36Z"/><path class="cls-2" d="M664.5,351.48a2,2,0,0,1-2-1.86l-4.65-76.54a2,2,0,0,1,4-.24l4.65,76.54a2,2,0,0,1-1.86,2.1H664.5Z"/><path class="cls-3" d="M534,156.19l6.66-1.08a5.93,5.93,0,0,1,5.62,2.17,20,20,0,0,1,4,8,13.82,13.82,0,0,1-1.81,9.2,5.87,5.87,0,0,1-3.57,2.79l-7.43,2.1a6,6,0,0,1-7.55-5.26L529,162.54A6,6,0,0,1,534,156.19Z"/><path class="cls-2" d="M535.83,181.56a7.9,7.9,0,0,1-7.86-7.27L527,162.7a7.94,7.94,0,0,1,6.61-8.42h0l6.66-1.08a7.89,7.89,0,0,1,7.46,2.89,22,22,0,0,1,4.4,8.83,15.67,15.67,0,0,1-2,10.53,7.77,7.77,0,0,1-4.74,3.72l-7.43,2.1A7.92,7.92,0,0,1,535.83,181.56ZM541.59,157a4.06,4.06,0,0,0-.65.05l-6.66,1.08h0a4,4,0,0,0-3.35,4.28L531.84,174a4,4,0,0,0,5.08,3.54l7.43-2.1a3.91,3.91,0,0,0,2.39-1.86,11.87,11.87,0,0,0,1.61-7.87,18.16,18.16,0,0,0-3.64-7.2A4,4,0,0,0,541.59,157Zm-7.62-.79h0Z"/><path class="cls-3" d="M435.73,204.4c-5,21.54-2.67,48.73,23.17,55.48,19,5,46.43-11.68,56.32-39.85s12-54.12-22.92-62.4a86.66,86.66,0,0,0-11.37-1.73c-21.26-1.38-29.41-1.81-42.29,37.07C437.5,196.4,436.66,200.33,435.73,204.4Z"/><path class="cls-2" d="M465,262.57a25.82,25.82,0,0,1-6.58-.81c-26.39-6.89-30-34.38-24.58-57.8l0.35-1.55c0.81-3.59,1.58-7,2.6-10.06,13.39-40.4,22.43-39.81,44.26-38.39a1.94,1.94,0,0,1-.25,3.88c-20.85-1.35-27.87-1.81-40.32,35.74-1,2.91-1.71,6.21-2.5,9.7l-0.36,1.56c-2.43,10.51-8,45.38,21.77,53.17,5.92,1.55,13.43.43,23.62-3.53a1.94,1.94,0,0,1,1.41,3.63C476.64,261.11,470.38,262.57,465,262.57Z"/><path class="cls-2" d="M504.57,221.12a21.76,21.76,0,0,1-7.64-20.91c0.44-2.62,1.31-6.07,1.57-9.35-19.72,10.59-50.52,10.88-63.75,10.44a9.91,9.91,0,0,1-9.3-6.94c-7.31-25.45,22.55-59.88,49.34-50.28,37.64-11.24,68.46,15.92,65.11,43.52C536.18,218.2,512,227.55,504.57,221.12Z"/><path class="cls-3" d="M506.08,218.69s18.08-10.33,31.36-1.41-2.15,41.67-37,26.89Z"/><path class="cls-2" d="M517.21,249.87a45.2,45.2,0,0,1-17.58-3.9,1.94,1.94,0,1,1,1.52-3.58c19.68,8.33,32.22,1,37-7.77,3.34-6.17,2.6-12.78-1.77-15.71-12.1-8.14-29.14,1.38-29.31,1.48a1.94,1.94,0,0,1-1.93-3.38c0.78-.45,19.29-10.82,33.41-1.33,6.07,4.08,7.34,12.82,3,20.79C537.42,244.07,528.89,249.87,517.21,249.87Z"/></svg>